<svg width="17" height="17" viewBox="0 0 17 17" fill="none" xmlns="http://www.w3.org/2000/svg">
<g id="Frame" clip-path="url(#clip0_174_4387)">
<g id="Group">
<path id="Vector" d="M16.828 4.86954C16.7527 4.81315 16.6611 4.78293 16.5671 4.78349C16.4731 4.78404 16.3818 4.81535 16.3072 4.87263L11.8333 8.28792L8.89533 1.65279C8.75576 1.34016 8.2445 1.34016 8.10503 1.65279L5.13394 8.36416L0.698999 4.87605C0.624475 4.81769 0.532887 4.78536 0.438245 4.78399C0.343603 4.78263 0.251119 4.8123 0.17494 4.86848C0.0988383 4.92464 0.0433408 5.00429 0.0170166 5.09513C-0.00930746 5.18597 -0.00499402 5.28296 0.0292909 5.3711L3.11085 13.333C3.14218 13.4142 3.1974 13.484 3.26922 13.5332C3.34104 13.5824 3.42609 13.6086 3.51314 13.6085H13.4868C13.5739 13.6089 13.659 13.5827 13.7308 13.5335C13.8027 13.4843 13.8578 13.4143 13.8889 13.333L16.9706 5.3711C17.0047 5.28337 17.0092 5.18691 16.9835 5.09638C16.9577 5.00585 16.9031 4.9262 16.828 4.86954ZM8.50061 2.89432L11.127 8.82755L8.38418 10.9209L5.83542 8.9169L8.50061 2.89432ZM4.77355 9.17941L3.52295 12.0043L1.40357 6.52862L4.77355 9.17941ZM4.13956 12.7455L5.47492 9.73055L7.67533 11.4612L5.99248 12.7455H4.13956ZM7.41592 12.7455L8.37628 12.0134L9.30797 12.7455H7.41592ZM10.6744 12.7206L9.0848 11.4707L11.4852 9.63768L12.8611 12.7443H10.7025C10.6934 12.736 10.684 12.7281 10.6744 12.7206ZM13.4785 12.0043L12.1931 9.09902L15.6134 6.4881L13.4785 12.0043ZM13.8744 15.1496C13.8743 15.2642 13.8288 15.374 13.7478 15.455C13.6668 15.536 13.557 15.5815 13.4424 15.5816H3.55824C3.44488 15.5798 3.33675 15.5335 3.25721 15.4527C3.17767 15.3719 3.13309 15.2631 3.13309 15.1497C3.13309 15.0363 3.17767 14.9275 3.25721 14.8467C3.33675 14.7659 3.44488 14.7196 3.55824 14.7178H13.4424C13.4992 14.7178 13.5553 14.729 13.6077 14.7506C13.6601 14.7723 13.7078 14.8042 13.7479 14.8443C13.788 14.8844 13.8198 14.932 13.8415 14.9844C13.8632 15.0368 13.8744 15.0929 13.8744 15.1496Z" fill="black"/>
</g>
</g>
<defs>
<clipPath id="clip0_174_4387">
<rect width="17" height="17" fill="white"/>
</clipPath>
</defs>
</svg>
