<svg width="0" height="0" class="hidden">
  <symbol fill="inherit" xmlns="http://www.w3.org/2000/svg" viewBox="0 0 13 13" id="search">
    <g clip-path="url(#clip0_9_19)">
      <path d="M12.8416 12.0758L9.60783 8.84204C10.4886 7.76481 10.9216 6.39027 10.8173 5.00273C10.7131 3.61519 10.0795 2.3208 9.04763 1.3873C8.01577 0.453803 6.66459 -0.0473866 5.27357 -0.0126007C3.88255 0.0221852 2.55811 0.590285 1.57421 1.57419C0.5903 2.5581 0.0222005 3.88254 -0.0125854 5.27356C-0.0473713 6.66458 0.453818 8.01576 1.38732 9.04761C2.32081 10.0795 3.6152 10.7131 5.00274 10.8173C6.39029 10.9216 7.76483 10.4886 8.84205 9.60782L12.0758 12.8416C12.1791 12.9339 12.3139 12.9832 12.4524 12.9793C12.5909 12.9754 12.7227 12.9186 12.8207 12.8207C12.9187 12.7227 12.9754 12.5909 12.9793 12.4524C12.9832 12.3139 12.9339 12.1791 12.8416 12.0758ZM5.41737 9.75001C4.55987 9.75041 3.72153 9.49647 3.00838 9.02033C2.29523 8.54418 1.73933 7.86721 1.411 7.07507C1.08266 6.28293 0.996649 5.4112 1.16384 4.57016C1.33103 3.72913 1.74391 2.95657 2.35025 2.35023C2.95659 1.74389 3.72914 1.33101 4.57018 1.16382C5.41121 0.996633 6.28294 1.08265 7.07509 1.41098C7.86723 1.73931 8.5442 2.29522 9.02034 3.00836C9.49649 3.72151 9.75042 4.55986 9.75002 5.41735C9.74841 6.56595 9.29142 7.66704 8.47924 8.47922C7.66705 9.2914 6.56596 9.74839 5.41737 9.75001Z"></path>
    </g>
    <defs>
      <clipPath id="clip0_9_19">
        <rect width="13" height="13" fill="white"></rect>
      </clipPath>
    </defs>
  </symbol>

  <symbol fill="inherit" xmlns="http://www.w3.org/2000/svg" viewBox="0 0 24 24" id="bag">
    <path d="M20.94 18.06L19.26 8.31C19.1453 7.47997 18.7404 6.71734 18.1172 6.15725C17.4939 5.59716 16.6926 5.27576 15.855 5.25H15.75C15.75 4.25544 15.3549 3.30161 14.6517 2.59835C13.9484 1.89509 12.9946 1.5 12 1.5C11.0055 1.5 10.0516 1.89509 9.34837 2.59835C8.64511 3.30161 8.25002 4.25544 8.25002 5.25H8.14502C7.30749 5.27576 6.50611 5.59716 5.88287 6.15725C5.25963 6.71734 4.85477 7.47997 4.74002 8.31L3.06002 18.06C2.95683 18.6256 2.97926 19.2071 3.12572 19.7631C3.27217 20.3191 3.53907 20.8361 3.90752 21.2775C4.21796 21.6565 4.60803 21.9625 5.05003 22.1738C5.49204 22.385 5.97513 22.4964 6.46502 22.5H17.535C18.0249 22.4964 18.508 22.385 18.95 22.1738C19.392 21.9625 19.7821 21.6565 20.0925 21.2775C20.461 20.8361 20.7279 20.3191 20.8743 19.7631C21.0208 19.2071 21.0432 18.6256 20.94 18.06ZM12 3C12.5968 3 13.1691 3.23705 13.591 3.65901C14.013 4.08097 14.25 4.65326 14.25 5.25H9.75002C9.75002 4.65326 9.98707 4.08097 10.409 3.65901C10.831 3.23705 11.4033 3 12 3ZM18.945 20.31C18.7755 20.522 18.5612 20.6938 18.3174 20.8131C18.0736 20.9325 17.8064 20.9963 17.535 21H6.46502C6.19362 20.9963 5.92643 20.9325 5.68263 20.8131C5.43883 20.6938 5.2245 20.522 5.05502 20.31C4.82646 20.0365 4.66149 19.7157 4.57199 19.3707C4.4825 19.0257 4.47073 18.6651 4.53752 18.315L6.21752 8.565C6.27335 8.08382 6.49737 7.63782 6.85004 7.30574C7.20271 6.97365 7.66135 6.77683 8.14502 6.75H15.855C16.3387 6.77683 16.7973 6.97365 17.15 7.30574C17.5027 7.63782 17.7267 8.08382 17.7825 8.565L19.4625 18.315C19.5293 18.6651 19.5175 19.0257 19.428 19.3707C19.3386 19.7157 19.1736 20.0365 18.945 20.31Z"></path>
  </symbol>

  <symbol fill="inherit" xmlns="http://www.w3.org/2000/svg" viewBox="0 0 24 24" id="heart">
    <path d="M3 12C0.75 9 1.5 4.5 5.25 3C9 1.5 11.25 4.5 12 6C12.75 4.5 15.75 1.5 19.5 3C23.25 4.5 23.25 9 21 12C18.75 15 12 21 12 21C12 21 5.25 15 3 12Z" stroke-width="2" stroke-linecap="round" stroke-linejoin="round"></path>
  </symbol>

  <symbol fill="inherit" xmlns="http://www.w3.org/2000/svg" viewBox="0 0 25 25" id="instagram">
    <path d="M15.3645 23.4376H9.11454C3.45829 23.4376 1.04163 21.0209 1.04163 15.3647V9.11467C1.04163 3.45842 3.45829 1.04175 9.11454 1.04175H15.3645C21.0208 1.04175 23.4375 3.45842 23.4375 9.11467V15.3647C23.4375 21.0209 21.0208 23.4376 15.3645 23.4376ZM9.11454 2.60425C4.31246 2.60425 2.60413 4.31258 2.60413 9.11467V15.3647C2.60413 20.1667 4.31246 21.8751 9.11454 21.8751H15.3645C20.1666 21.8751 21.875 20.1667 21.875 15.3647V9.11467C21.875 4.31258 20.1666 2.60425 15.3645 2.60425H9.11454Z"></path>
    <path d="M12.5 16.9271C11.3267 16.9243 10.2022 16.457 9.37258 15.6274C8.54293 14.7977 8.07563 13.6733 8.07288 12.5C8.07563 11.3267 8.54293 10.2023 9.37258 9.37262C10.2022 8.54298 11.3267 8.07567 12.5 8.07292C13.6732 8.07567 14.7977 8.54298 15.6273 9.37262C16.457 10.2023 16.9243 11.3267 16.927 12.5C16.9243 13.6733 16.457 14.7977 15.6273 15.6274C14.7977 16.457 13.6732 16.9243 12.5 16.9271V16.9271ZM12.5 9.63542C10.9166 9.63542 9.63538 10.9167 9.63538 12.5C9.63538 14.0833 10.9166 15.3646 12.5 15.3646C14.0833 15.3646 15.3645 14.0833 15.3645 12.5C15.3645 10.9167 14.0833 9.63542 12.5 9.63542ZM17.7083 7.8125C17.5729 7.8125 17.4375 7.78125 17.3125 7.72917C17.1875 7.67709 17.0729 7.60417 16.9687 7.51042C16.875 7.40625 16.7916 7.29167 16.7395 7.16667C16.6894 7.04083 16.6646 6.9063 16.6666 6.77084C16.6666 6.63542 16.6875 6.5 16.7395 6.375C16.802 6.23959 16.875 6.13542 16.9687 6.03125C17.0208 5.98959 17.0729 5.9375 17.125 5.90625C17.1875 5.86459 17.25 5.83334 17.3125 5.8125C17.5023 5.73356 17.7112 5.7122 17.9131 5.7511C18.115 5.79 18.3009 5.88743 18.4479 6.03125C18.5416 6.13542 18.6145 6.23959 18.6666 6.375C18.7187 6.5 18.75 6.63542 18.75 6.77084C18.75 6.90625 18.7187 7.04167 18.6666 7.16667C18.6145 7.29167 18.5416 7.40625 18.4479 7.51042C18.3437 7.60417 18.2291 7.67709 18.1041 7.72917C17.9791 7.78125 17.8437 7.8125 17.7083 7.8125Z"></path>
  </symbol>

  <symbol fill="inherit" xmlns="http://www.w3.org/2000/svg" viewBox="0 0 25 25" id="youtube">
    <path d="M17.7084 21.6147H7.29171C3.70837 21.6147 1.30212 19.2084 1.30212 15.6251V9.37508C1.30212 5.79175 3.70837 3.3855 7.29171 3.3855H17.7084C21.2917 3.3855 23.698 5.79175 23.698 9.37508V15.6251C23.698 19.2084 21.2917 21.6147 17.7084 21.6147ZM7.29171 4.948C4.60421 4.948 2.86462 6.68758 2.86462 9.37508V15.6251C2.86462 18.3126 4.60421 20.0522 7.29171 20.0522H17.7084C20.3959 20.0522 22.1355 18.3126 22.1355 15.6251V9.37508C22.1355 6.68758 20.3959 4.948 17.7084 4.948H7.29171Z"></path>
    <path d="M11.0312 16.1771C10.7292 16.1771 10.4375 16.1042 10.1771 15.9584C9.57292 15.6146 9.21875 14.9167 9.21875 14.0521V10.9688C9.21875 10.1042 9.5625 9.40628 10.1771 9.06253C10.7813 8.71878 11.5625 8.78128 12.3021 9.22919L14.875 10.7709C15.5833 11.1979 15.9896 11.8334 15.9896 12.5104C15.9896 13.1875 15.5833 13.8229 14.875 14.25L12.3021 15.7917C11.875 16.0417 11.4375 16.1771 11.0312 16.1771V16.1771ZM11.0312 10.3854C10.9988 10.385 10.9667 10.3921 10.9375 10.4063C10.8646 10.4479 10.7813 10.6354 10.7813 10.9584V14.0417C10.7813 14.3542 10.8646 14.5417 10.9375 14.5938C11.0208 14.6354 11.2187 14.6146 11.4896 14.4479L14.0625 12.9063C14.3229 12.75 14.4167 12.5938 14.4167 12.5C14.4167 12.4063 14.3229 12.2604 14.0625 12.0938L11.4896 10.5521C11.3021 10.4375 11.1354 10.3854 11.0312 10.3854V10.3854Z"></path>
  </symbol>

  <symbol fill="inherit" xmlns="http://www.w3.org/2000/svg" viewBox="0 0 25 25" id="facebook">
    <path d="M15.3646 23.6979H10.6771V16.1458H9.6875C9.08333 16.1458 8.59375 15.6562 8.59375 15.0521V13.0729C8.59375 12.4687 9.08333 11.9792 9.6875 11.9792H10.6771V9.375C10.6771 7.21875 12.4271 5.46875 14.5833 5.46875H17.3958C18 5.46875 18.4896 5.95833 18.4896 6.5625V9.0625C18.4896 9.66667 18 10.1562 17.3958 10.1562H15.3646V11.9792H17.3229C17.4844 11.9783 17.6441 12.0135 17.7904 12.082C17.9366 12.1506 18.0658 12.2508 18.1685 12.3755C18.2712 12.5001 18.3449 12.6461 18.3842 12.8027C18.4236 12.9594 18.4275 13.1229 18.3958 13.2812L18 15.2604C17.8958 15.7708 17.4479 16.1354 16.9271 16.1354H15.3646V23.6979ZM12.2396 22.1354H13.8021V14.5833H16.5521L16.7604 13.5417H13.8125V9.6875C13.8125 9.08333 14.3021 8.59375 14.9063 8.59375H16.9375V7.03125H14.5833C13.2917 7.03125 12.2396 8.08333 12.2396 9.375V13.5417H10.1562V14.5833H12.2396V22.1354Z"></path>
    <path d="M15.625 23.6978H9.37504C3.71879 23.6978 1.30212 21.2812 1.30212 15.6249V9.37492C1.30212 3.71867 3.71879 1.302 9.37504 1.302H15.625C21.2813 1.302 23.698 3.71867 23.698 9.37492V15.6249C23.698 21.2812 21.2813 23.6978 15.625 23.6978ZM9.37504 2.8645C4.57296 2.8645 2.86462 4.57284 2.86462 9.37492V15.6249C2.86462 20.427 4.57296 22.1353 9.37504 22.1353H15.625C20.4271 22.1353 22.1355 20.427 22.1355 15.6249V9.37492C22.1355 4.57284 20.4271 2.8645 15.625 2.8645H9.37504Z"></path>
  </symbol>

  <symbol fill="inherit" xmlns="http://www.w3.org/2000/svg" viewBox="0 0 20 20" id="close">
    <path d="M4.375 4.375L15.625 15.625" stroke-width="2" stroke-linecap="round" stroke-linejoin="round"></path>
    <path d="M4.375 15.625L15.625 4.375" stroke-width="2" stroke-linecap="round" stroke-linejoin="round"></path>
  </symbol>

  <symbol fill="inherit" xmlns="http://www.w3.org/2000/svg" viewBox="0 0 15 15" id="plus">
    <g clip-path="url(#clip0_103_316)">
      <path d="M13.125 6.5625H8.4375V1.875C8.4375 1.3575 8.0175 0.9375 7.5 0.9375C6.9825 0.9375 6.5625 1.3575 6.5625 1.875V6.5625H1.875C1.3575 6.5625 0.9375 6.9825 0.9375 7.5C0.9375 8.0175 1.3575 8.4375 1.875 8.4375H6.5625V13.125C6.5625 13.6425 6.9825 14.0625 7.5 14.0625C8.0175 14.0625 8.4375 13.6425 8.4375 13.125V8.4375H13.125C13.6425 8.4375 14.0625 8.0175 14.0625 7.5C14.0625 6.9825 13.6425 6.5625 13.125 6.5625Z"></path>
    </g>
    <defs>
      <clipPath id="clip0_103_316">
        <rect width="15" height="15" fill="white"></rect>
      </clipPath>
    </defs>
  </symbol>

  <symbol fill="inherit" xmlns="http://www.w3.org/2000/svg" viewBox="0 0 19 19" id="minus">
    <path d="M15.4895 8.3125H3.51055C2.8834 8.3125 2.375 8.84316 2.375 9.5C2.375 10.1568 2.8834 10.6875 3.51055 10.6875H15.4895C16.1166 10.6875 16.625 10.1568 16.625 9.5C16.625 8.84316 16.1166 8.3125 15.4895 8.3125Z"></path>
  </symbol>

  <symbol>
  <svg width="68" height="30" viewBox="0 0 68 30" fill="none" xmlns="http://www.w3.org/2000/svg">
<g id="visa">
<path id="Vector" d="M58.32 7H54.88C53.84 7 53.04 7.33333 52.56 8.41667L46 24H50.64C50.64 24 51.44 21.9167 51.6 21.4167C52.08 21.4167 56.64 21.4167 57.28 21.4167C57.44 22 57.84 23.9167 57.84 23.9167H62L58.32 7ZM52.88 17.9167C53.28 16.9167 54.64 13.1667 54.64 13.1667C54.64 13.25 55.04 12.1667 55.2 11.5833L55.52 13.0833C55.52 13.0833 56.4 17.1667 56.56 18H52.88V17.9167Z" fill="#3362AB"/>
<path id="Vector_2" d="M46.4096 18.3333C46.4096 21.7333 43.2048 24 38.2289 24C36.1205 24 34.0964 23.5952 33 23.1095L33.6747 19.3857L34.2651 19.6286C35.7831 20.2762 36.7952 20.519 38.6506 20.519C40 20.519 41.4337 20.0333 41.4337 18.9C41.4337 18.1714 40.8434 17.6857 38.988 16.8762C37.2169 16.0667 34.8554 14.7714 34.8554 12.4238C34.8554 9.18571 38.1446 7 42.7831 7C44.5542 7 46.0723 7.32381 47 7.72857L46.3253 11.2905L45.988 10.9667C45.1446 10.6429 44.0482 10.319 42.4458 10.319C40.6747 10.4 39.8313 11.1286 39.8313 11.7762C39.8313 12.5048 40.8434 13.0714 42.4458 13.8C45.1446 15.0143 46.4096 16.3905 46.4096 18.3333Z" fill="#3362AB"/>
<path id="Vector_3" d="M6 7.33645L6.08462 7H13.3615C14.3769 7 15.1385 7.33645 15.3923 8.42991L17 16C15.3923 11.9626 11.6692 8.68224 6 7.33645Z" fill="#F9B50B"/>
<path id="Vector_4" d="M27 7.08333L19.898 24H15.0816L11 9.83333C13.9388 11.75 16.3878 14.75 17.2857 16.8333L17.7755 18.5833L22.1837 7H27V7.08333Z" fill="#3362AB"/>
<path id="Vector_5" d="M28.7222 7H33L30.2778 24H26L28.7222 7Z" fill="#3362AB"/>
</g>
</svg>
  </symbol>
<symbol>
<svg width="90" height="30" viewBox="0 0 90 30" fill="none" xmlns="http://www.w3.org/2000/svg">
<g id="paypal">
<g id="XMLID 2">
<g id="XMLID 3">
<g id="XMLID 4">
<path id="XMLID 30" d="M34.4925 13.25C34.2641 14.9631 32.8936 14.9631 31.6373 14.9631H30.952L31.5231 11.6511C31.5231 11.4227 31.7515 11.3084 31.9799 11.3084H32.3225C33.2362 11.3084 34.0357 11.3084 34.4925 11.7653C34.4925 12.2221 34.4925 12.679 34.4925 13.25ZM33.9215 8.68164H29.0105C28.6678 8.68164 28.4394 8.91006 28.3252 9.25269L26.3837 21.8157C26.3837 22.0441 26.4979 22.2725 26.8405 22.2725H29.1247C29.4673 22.2725 29.6957 22.0441 29.8099 21.7015L30.381 18.2752C30.381 17.9326 30.7236 17.7041 31.0662 17.7041H32.6652C35.863 17.7041 37.6903 16.1052 38.2614 13.0216C38.4898 11.6511 38.2614 10.6232 37.6903 9.82373C36.7767 9.13848 35.5204 8.68164 33.9215 8.68164Z" fill="#263577"/>
<path id="XMLID 27" d="M45.2287 17.8202C45.0003 19.1907 43.9724 20.1044 42.6019 20.1044C41.9167 20.1044 41.3456 19.876 41.003 19.4191C40.6604 18.9623 40.5462 18.3913 40.6604 17.8202C40.8888 16.4497 41.9167 15.536 43.2872 15.536C43.9724 15.536 44.5435 15.7645 44.8861 16.2213C45.1145 16.5639 45.3429 17.135 45.2287 17.8202ZM48.4266 13.2519H46.1424C45.914 13.2519 45.7998 13.3661 45.6856 13.5945L45.5714 14.2797L45.4572 14.0513C45.0003 13.3661 43.8582 13.0234 42.7162 13.0234C40.0893 13.0234 37.9194 14.965 37.4625 17.706C37.2341 19.0765 37.5767 20.3328 38.3762 21.2465C39.0614 22.0459 40.0893 22.3886 41.3456 22.3886C43.4014 22.3886 44.5435 21.0181 44.5435 21.0181L44.4293 21.7033C44.4293 21.9317 44.5435 22.1602 44.8861 22.1602H46.9419C47.2845 22.1602 47.5129 21.9317 47.6271 21.5891L48.8834 13.5945C48.8834 13.4803 48.7692 13.2519 48.4266 13.2519Z" fill="#263577"/>
<path id="XMLID 26" d="M60.8756 13.251H58.4772C58.2488 13.251 58.0204 13.3652 57.9061 13.5936L54.7083 18.3904L53.3378 13.822C53.2236 13.4794 52.9952 13.3652 52.6525 13.3652H50.3684C50.1399 13.3652 49.9115 13.5936 50.0257 13.9362L52.6525 21.474L50.2541 24.9003C50.0257 25.1287 50.2542 25.5855 50.5968 25.5855H52.9952C53.2236 25.5855 53.452 25.4713 53.5662 25.2429L61.3324 13.9362C61.4466 13.5936 61.2182 13.251 60.8756 13.251Z" fill="#263577"/>
<path id="XMLID 21" d="M69.2125 13.25C68.9841 14.9631 67.6136 14.9631 66.3573 14.9631H65.672L66.243 11.6511C66.243 11.4227 66.4715 11.3084 66.6999 11.3084H67.0425C67.9562 11.3084 68.7556 11.3084 69.2125 11.7653C69.3267 12.2221 69.3267 12.679 69.2125 13.25ZM68.6414 8.68164H63.7305C63.3878 8.68164 63.1594 8.91006 63.0452 9.25269L61.1036 21.8157C61.1036 22.0441 61.2179 22.2725 61.5605 22.2725H64.0731C64.3015 22.2725 64.5299 22.1583 64.5299 21.8157L65.1009 18.2752C65.1009 17.9326 65.4436 17.7041 65.7862 17.7041H67.3851C70.583 17.7041 72.4103 16.1052 72.9814 13.0216C73.2098 11.6511 72.9814 10.6232 72.4103 9.82373C71.6109 9.13848 70.3546 8.68164 68.6414 8.68164Z" fill="#2199D6"/>
<path id="XMLID 13" d="M80.0622 17.8202C79.8338 19.1907 78.8059 20.1044 77.4354 20.1044C76.7502 20.1044 76.1791 19.876 75.8365 19.4191C75.4939 18.9623 75.3797 18.3913 75.4939 17.8202C75.7223 16.4497 76.7502 15.536 78.1207 15.536C78.8059 15.536 79.377 15.7645 79.7196 16.2213C79.948 16.5639 80.1764 17.135 80.0622 17.8202ZM83.2601 13.2519H80.9759C80.7475 13.2519 80.6333 13.3661 80.5191 13.5945L80.4049 14.2797L80.2907 14.0513C79.8338 13.3661 78.6917 13.0234 77.5496 13.0234C74.9228 13.0234 72.7529 14.965 72.296 17.706C72.0676 19.0765 72.4102 20.3328 73.2097 21.2465C73.8949 22.0459 74.9228 22.3886 76.1791 22.3886C78.2349 22.3886 79.377 21.0181 79.377 21.0181L79.2628 21.7033C79.2628 21.9317 79.377 22.1602 79.7196 22.1602H81.7754C82.118 22.1602 82.3464 21.9317 82.4606 21.5891L83.7169 13.5945C83.7169 13.4803 83.4885 13.2519 83.2601 13.2519Z" fill="#2199D6"/>
<path id="XMLID 12" d="M86.0015 9.02427L83.9457 21.8157C83.9457 22.0441 84.0599 22.2725 84.4025 22.2725H86.4583C86.8009 22.2725 87.0293 22.0441 87.1435 21.7015L89.0851 9.13848C89.0851 8.91006 88.9709 8.68164 88.6283 8.68164H86.3441C86.2299 8.68164 86.1157 8.91006 86.0015 9.02427Z" fill="#2199D6"/>
<path id="XMLID 10" d="M6.05523 24.6711L6.39784 22.2727H5.59839H1.60107L4.3421 4.79878C4.3421 4.79878 4.34209 4.68457 4.4563 4.68457H4.57051H11.3088C13.4788 4.68457 15.0777 5.14141 15.8772 6.05508C16.2198 6.51191 16.4482 6.96875 16.5624 7.42559C16.6767 7.99663 16.6767 8.56767 16.5624 9.36713V9.82397L16.9051 10.0524C17.2477 10.1666 17.4761 10.395 17.7045 10.6234C18.0472 10.9661 18.2756 11.4229 18.2756 11.9939C18.3898 12.565 18.3898 13.2502 18.1614 14.0497C17.9329 14.9634 17.7045 15.6486 17.3619 16.3339C17.0193 16.9049 16.5624 17.3618 16.1056 17.8186C15.6488 18.1612 14.9635 18.3896 14.3925 18.6181C13.7072 18.7323 13.022 18.8465 12.2225 18.8465H11.6515C11.3088 18.8465 10.9662 18.9607 10.6236 19.1891C10.3952 19.4175 10.1668 19.7601 10.0525 20.1028V20.3312L9.36728 24.5569V24.6711V24.7853C9.36728 24.7853 9.36728 24.7853 9.25307 24.7853H6.05523V24.6711Z" fill="#263577"/>
<path id="XMLID 8" d="M17.3616 9.36816C17.3616 9.48237 17.3616 9.59659 17.2473 9.71079C16.3337 14.2792 13.3643 15.7639 9.48116 15.7639H7.53959C7.08276 15.7639 6.62593 16.1065 6.62593 16.5633L5.59804 22.959L5.36963 24.7864C5.36963 25.129 5.59804 25.3574 5.82646 25.3574H9.36694C9.82378 25.3574 10.1664 25.0148 10.1664 24.6722V24.4437L10.8517 20.3322V20.1038C10.9659 19.647 11.3085 19.4186 11.6511 19.4186H12.2222C15.6484 19.4186 18.2752 18.048 18.9605 14.0507C19.3031 12.3376 19.0747 10.9671 18.2752 10.0534C18.0468 9.825 17.7042 9.59658 17.3616 9.36816Z" fill="#2199D6"/>
<path id="XMLID 6" d="M16.4477 9.02427C16.3335 9.02427 16.2193 8.91006 15.9909 8.91006C15.8767 8.91006 15.6482 8.79585 15.534 8.79585C14.963 8.68164 14.3919 8.68164 13.8209 8.68164H8.56728C8.45307 8.68164 8.33886 8.68164 8.22465 8.79585C7.99623 8.91006 7.76782 9.13847 7.76782 9.36689L6.62573 16.4479V16.6763C6.73994 16.2194 7.08255 15.8768 7.53939 15.8768H9.48096C13.3641 15.8768 16.3335 14.2779 17.2471 9.82373C17.2471 9.70952 17.2472 9.59531 17.3614 9.4811C17.1329 9.36689 16.9045 9.25269 16.6761 9.13848C16.5619 9.02427 16.4477 9.02427 16.4477 9.02427Z" fill="#252C5E"/>
<path id="XMLID 5" d="M7.76782 9.36781C7.76782 9.1394 7.99623 8.91098 8.22465 8.79677C8.33886 8.79677 8.45307 8.68256 8.56728 8.68256H13.8209C14.3919 8.68256 15.0772 8.68256 15.534 8.79677C15.6482 8.79677 15.8766 8.79677 15.9909 8.91098C16.1051 8.91098 16.2193 9.02519 16.4477 9.02519C16.5619 9.02519 16.5619 9.02519 16.6761 9.1394C16.9045 9.25361 17.1329 9.36782 17.3614 9.48203C17.5898 7.76889 17.3614 6.6268 16.4477 5.59892C15.4198 4.45683 13.5925 4 11.3083 4H4.56996C4.11313 4 3.65629 4.34262 3.65629 4.79946L0.915283 22.3876C0.915283 22.7303 1.1437 23.0729 1.48633 23.0729H5.59784L6.62573 16.4488L7.76782 9.36781Z" fill="#263577"/>
</g>
</g>
</g>
</g>
</svg>
</symbol>

<svg id="mastercard" xmlns="http://www.w3.org/2000/svg" width="65" height="25" viewBox="0 0 256 199"><path d="M46.54 198.011V184.84c0-5.05-3.074-8.342-8.343-8.342c-2.634 0-5.488.878-7.464 3.732c-1.536-2.415-3.731-3.732-7.024-3.732c-2.196 0-4.39.658-6.147 3.073v-2.634h-4.61v21.074h4.61v-11.635c0-3.731 1.976-5.488 5.05-5.488c3.072 0 4.61 1.976 4.61 5.488v11.635h4.61v-11.635c0-3.731 2.194-5.488 5.048-5.488c3.074 0 4.61 1.976 4.61 5.488v11.635h5.05Zm68.271-21.074h-7.463v-6.366h-4.61v6.366h-4.171v4.17h4.17v9.66c0 4.83 1.976 7.683 7.245 7.683c1.976 0 4.17-.658 5.708-1.536l-1.318-3.952c-1.317.878-2.853 1.098-3.951 1.098c-2.195 0-3.073-1.317-3.073-3.513v-9.44h7.463v-4.17Zm39.076-.44c-2.634 0-4.39 1.318-5.488 3.074v-2.634h-4.61v21.074h4.61v-11.854c0-3.512 1.536-5.488 4.39-5.488c.878 0 1.976.22 2.854.439l1.317-4.39c-.878-.22-2.195-.22-3.073-.22Zm-59.052 2.196c-2.196-1.537-5.269-2.195-8.562-2.195c-5.268 0-8.78 2.634-8.78 6.805c0 3.513 2.634 5.488 7.244 6.147l2.195.22c2.415.438 3.732 1.097 3.732 2.195c0 1.536-1.756 2.634-4.83 2.634c-3.073 0-5.488-1.098-7.025-2.195l-2.195 3.512c2.415 1.756 5.708 2.634 9 2.634c6.147 0 9.66-2.853 9.66-6.805c0-3.732-2.854-5.708-7.245-6.366l-2.195-.22c-1.976-.22-3.512-.658-3.512-1.975c0-1.537 1.536-2.415 3.951-2.415c2.635 0 5.269 1.097 6.586 1.756l1.976-3.732Zm122.495-2.195c-2.635 0-4.391 1.317-5.489 3.073v-2.634h-4.61v21.074h4.61v-11.854c0-3.512 1.537-5.488 4.39-5.488c.879 0 1.977.22 2.855.439l1.317-4.39c-.878-.22-2.195-.22-3.073-.22Zm-58.833 10.976c0 6.366 4.39 10.976 11.196 10.976c3.073 0 5.268-.658 7.463-2.414l-2.195-3.732c-1.756 1.317-3.512 1.975-5.488 1.975c-3.732 0-6.366-2.634-6.366-6.805c0-3.951 2.634-6.586 6.366-6.805c1.976 0 3.732.658 5.488 1.976l2.195-3.732c-2.195-1.757-4.39-2.415-7.463-2.415c-6.806 0-11.196 4.61-11.196 10.976Zm42.588 0v-10.537h-4.61v2.634c-1.537-1.975-3.732-3.073-6.586-3.073c-5.927 0-10.537 4.61-10.537 10.976c0 6.366 4.61 10.976 10.537 10.976c3.073 0 5.269-1.097 6.586-3.073v2.634h4.61v-10.537Zm-16.904 0c0-3.732 2.415-6.805 6.366-6.805c3.732 0 6.367 2.854 6.367 6.805c0 3.732-2.635 6.805-6.367 6.805c-3.951-.22-6.366-3.073-6.366-6.805Zm-55.1-10.976c-6.147 0-10.538 4.39-10.538 10.976c0 6.586 4.39 10.976 10.757 10.976c3.073 0 6.147-.878 8.562-2.853l-2.196-3.293c-1.756 1.317-3.951 2.195-6.146 2.195c-2.854 0-5.708-1.317-6.367-5.05h15.587v-1.755c.22-6.806-3.732-11.196-9.66-11.196Zm0 3.951c2.853 0 4.83 1.757 5.268 5.05h-10.976c.439-2.854 2.415-5.05 5.708-5.05Zm114.372 7.025v-18.879h-4.61v10.976c-1.537-1.975-3.732-3.073-6.586-3.073c-5.927 0-10.537 4.61-10.537 10.976c0 6.366 4.61 10.976 10.537 10.976c3.074 0 5.269-1.097 6.586-3.073v2.634h4.61v-10.537Zm-16.903 0c0-3.732 2.414-6.805 6.366-6.805c3.732 0 6.366 2.854 6.366 6.805c0 3.732-2.634 6.805-6.366 6.805c-3.952-.22-6.366-3.073-6.366-6.805Zm-154.107 0v-10.537h-4.61v2.634c-1.537-1.975-3.732-3.073-6.586-3.073c-5.927 0-10.537 4.61-10.537 10.976c0 6.366 4.61 10.976 10.537 10.976c3.074 0 5.269-1.097 6.586-3.073v2.634h4.61v-10.537Zm-17.123 0c0-3.732 2.415-6.805 6.366-6.805c3.732 0 6.367 2.854 6.367 6.805c0 3.732-2.635 6.805-6.367 6.805c-3.951-.22-6.366-3.073-6.366-6.805Z"/><path fill="#FF5F00" d="M93.298 16.903h69.15v124.251h-69.15z"/><path fill="#EB001B" d="M97.689 79.029c0-25.245 11.854-47.637 30.074-62.126C114.373 6.366 97.47 0 79.03 0C35.343 0 0 35.343 0 79.029c0 43.685 35.343 79.029 79.029 79.029c18.44 0 35.343-6.366 48.734-16.904c-18.22-14.269-30.074-36.88-30.074-62.125Z"/><path fill="#F79E1B" d="M255.746 79.029c0 43.685-35.343 79.029-79.029 79.029c-18.44 0-35.343-6.366-48.734-16.904c18.44-14.488 30.075-36.88 30.075-62.125c0-25.245-11.855-47.637-30.075-62.126C141.373 6.366 158.277 0 176.717 0c43.686 0 79.03 35.563 79.03 79.029Z"/></svg>

<svg id="gpay" xmlns="http://www.w3.org/2000/svg" width="65" height="25" viewBox="0 0 512 204"><path fill="#5F6368" d="M362.927 55.057c14.075 0 24.952 3.839 33.27 11.517c8.317 7.677 12.155 17.914 12.155 30.71v61.42h-17.914V144.63h-.64c-7.677 11.517-18.554 17.275-31.35 17.275c-10.877 0-20.474-3.2-28.151-9.597c-7.038-6.398-11.517-15.355-11.517-24.952c0-10.237 3.84-18.555 11.517-24.953s18.554-8.957 31.35-8.957c11.516 0 20.474 1.92 27.511 6.398v-4.478c0-5.972-2.229-11.943-6.688-15.834l-.99-.801c-5.118-4.479-11.516-7.038-18.553-7.038c-10.877 0-19.194 4.479-24.953 13.436L321.34 74.89c10.236-13.436 23.672-19.834 41.587-19.834Zm-90.212-43.506c11.48 0 22.39 3.995 31.113 11.445l1.517 1.35c8.957 7.678 13.435 19.195 13.435 31.351c0 12.156-4.478 23.033-13.435 31.35c-8.958 8.318-19.834 12.796-32.63 12.796l-30.71-.64v59.502H222.81V11.55h49.905Zm92.77 97.25c-7.677 0-14.075 1.919-19.193 5.758c-5.119 3.199-7.678 7.677-7.678 13.435c0 5.119 2.56 9.597 6.398 12.157c4.479 3.199 9.597 5.118 14.716 5.118c7.165 0 14.331-2.787 19.936-7.84l1.177-1.117c6.398-5.758 9.597-12.796 9.597-20.474c-5.758-4.478-14.076-7.038-24.952-7.038Zm-91.49-79.336h-31.99V80.65h31.99c7.037 0 14.075-2.559 18.554-7.677c10.236-9.597 10.236-25.592.64-35.19l-.64-.64c-5.119-5.118-11.517-8.317-18.555-7.677ZM512 58.256l-63.34 145.235h-19.194l23.672-50.544l-41.587-94.051h20.474l30.07 72.297h.64l29.431-72.297H512v-.64Z"/><path fill="#4285F4" d="M165.868 86.407c0-5.758-.64-11.516-1.28-17.274H84.615v32.63h45.425c-1.919 10.236-7.677 19.833-16.634 25.592v21.113h27.511c15.995-14.715 24.952-36.469 24.952-62.06Z"/><path fill="#34A853" d="M84.614 168.942c23.032 0 42.226-7.678 56.302-20.474l-27.511-21.113c-7.678 5.118-17.275 8.317-28.791 8.317c-21.754 0-40.948-14.715-47.346-35.189H9.118v21.753c14.715 28.791 43.506 46.706 75.496 46.706Z"/><path fill="#FBBC04" d="M37.268 100.483c-3.838-10.237-3.838-21.753 0-32.63V46.1H9.118c-12.157 23.673-12.157 51.824 0 76.136l28.15-21.753Z"/><path fill="#EA4335" d="M84.614 33.304c12.156 0 23.672 4.479 32.63 12.796l24.312-24.312C126.2 7.712 105.727-.605 85.253.034c-31.99 0-61.42 17.915-75.496 46.706l28.151 21.753c5.758-20.474 24.952-35.189 46.706-35.189Z"/></svg>

<svg id="ipay" xmlns="http://www.w3.org/2000/svg" width="65" height="25" viewBox="0 0 512 211"><path d="M93.552 27.103c-6 7.1-15.602 12.702-25.203 11.901c-1.2-9.6 3.5-19.802 9.001-26.103C83.35 5.601 93.852.4 102.353 0c1 10.001-2.9 19.802-8.8 27.103Zm8.701 13.802c-13.902-.8-25.803 7.9-32.404 7.9c-6.7 0-16.802-7.5-27.803-7.3c-14.301.2-27.603 8.3-34.904 21.202c-15.002 25.803-3.9 64.008 10.601 85.01c7.101 10.401 15.602 21.802 26.803 21.402c10.602-.4 14.802-6.9 27.604-6.9c12.901 0 16.602 6.9 27.803 6.7c11.601-.2 18.902-10.4 26.003-20.802c8.1-11.801 11.401-23.303 11.601-23.903c-.2-.2-22.402-8.7-22.602-34.304c-.2-21.402 17.502-31.603 18.302-32.203c-10.002-14.802-25.603-16.402-31.004-16.802Zm80.31-29.004V167.82h24.202v-53.306h33.504c30.603 0 52.106-21.002 52.106-51.406c0-30.403-21.103-51.206-51.306-51.206h-58.507Zm24.202 20.403h27.903c21.003 0 33.004 11.201 33.004 30.903c0 19.702-12.001 31.004-33.104 31.004h-27.803V32.304ZM336.58 169.019c15.202 0 29.303-7.7 35.704-19.902h.5v18.702h22.403V90.21c0-22.502-18.002-37.004-45.706-37.004c-25.703 0-44.705 14.702-45.405 34.904h21.803c1.8-9.601 10.7-15.902 22.902-15.902c14.802 0 23.103 6.901 23.103 19.603v8.6l-30.204 1.8c-28.103 1.7-43.304 13.202-43.304 33.205c0 20.202 15.701 33.603 38.204 33.603Zm6.5-18.502c-12.9 0-21.102-6.2-21.102-15.702c0-9.8 7.901-15.501 23.003-16.401l26.903-1.7v8.8c0 14.602-12.401 25.003-28.803 25.003Zm82.01 59.707c23.603 0 34.704-9 44.405-36.304L512 54.706h-24.603l-28.503 92.11h-.5l-28.503-92.11h-25.303l41.004 113.513l-2.2 6.901c-3.7 11.701-9.701 16.202-20.402 16.202c-1.9 0-5.6-.2-7.101-.4v18.702c1.4.4 7.4.6 9.201.6Z"/></svg>

<svg id="nfc" xmlns="http://www.w3.org/2000/svg" width="65" height="25" viewBox="0 0 256 256"><path fill="currentColor" d="M93.54 102.13a55.39 55.39 0 0 1 0 51.74A4 4 0 0 1 90 156a4.07 4.07 0 0 1-1.87-.46a4 4 0 0 1-1.67-5.41a46.73 46.73 0 0 0 0-44.26a4 4 0 1 1 7.08-3.74Zm50.58-33.66a4 4 0 0 0-1.65 5.41a114.67 114.67 0 0 1 0 108.24a4 4 0 1 0 7.06 3.76a122.65 122.65 0 0 0 0-115.76a4 4 0 0 0-5.41-1.65Zm-28 16a4 4 0 0 0-1.65 5.41a81 81 0 0 1 0 76.24a4 4 0 1 0 7.06 3.76a89 89 0 0 0 0-83.76a4 4 0 0 0-5.41-1.65ZM228 128A100 100 0 1 1 128 28a100.11 100.11 0 0 1 100 100Zm-8 0a92 92 0 1 0-92 92a92.1 92.1 0 0 0 92-92Z"/></svg>
</svg>